<?xml version="1.0" encoding="UTF-8" standalone="no"?>
<svg width="23px" height="23px" viewBox="0 0 23 23" version="1.1" xmlns="http://www.w3.org/2000/svg" xmlns:xlink="http://www.w3.org/1999/xlink">
    <!-- Generator: Sketch 47.1 (45422) - http://www.bohemiancoding.com/sketch -->
    <title>Fill 205</title>
    <desc>Created with Sketch.</desc>
    <defs></defs>
    <g id="Symbols" stroke="none" stroke-width="1" fill="none" fill-rule="evenodd">
        <g id="cohort" transform="translate(-334.000000, -19.000000)" fill="#FFFFFE">
            <g id="Group-5">
                <path d="M353.989388,33.5721085 C353.989388,34.4495478 353.427674,35 352.57449,35 L338.42551,35 C337.572326,35 337.010612,34.4495478 337.010612,33.5721085 C337.010612,33.5721085 337,20.9045693 337,20 L354,20 C354,21.4400286 353.989388,33.5721085 353.989388,33.5721085 L353.989388,33.5721085 Z M334,19 L334,20.4375 L335.4375,20.4375 L335.4375,34.09375 C335.4375,35.7971875 336.619125,36.96875 338.3125,36.96875 L342.625,36.96875 L339.75,42 L341.914875,41.9906563 L344.78125,36.96875 L346.21875,36.96875 L349.085125,41.9906563 L351.25,42 L348.375,36.96875 L352.6875,36.96875 C354.380875,36.96875 355.5625,35.7971875 355.5625,34.09375 L355.5625,20.4375 L357,20.4375 L357,19 L334,19 L334,19 Z M340.5,33 C340.7765,33 341,32.702 341,32.3333333 L341,29.6666667 C341,29.2986667 340.7765,29 340.5,29 C340.2235,29 340,29.2986667 340,29.6666667 L340,32.3333333 C340,32.702 340.2235,33 340.5,33 L340.5,33 Z M349.5,33 C349.7765,33 350,32.6749091 350,32.2727273 L350,25.7272727 C350,25.3258182 349.7765,25 349.5,25 C349.2235,25 349,25.3258182 349,25.7272727 L349,32.2727273 C349,32.6749091 349.2235,33 349.5,33 L349.5,33 Z M345.5,33 C345.7765,33 346,32.6807143 346,32.2857143 L346,23.7142857 C346,23.32 345.7765,23 345.5,23 C345.2235,23 345,23.32 345,23.7142857 L345,32.2857143 C345,32.6807143 345.2235,33 345.5,33 L345.5,33 Z" id="Fill-205"></path>
            </g>
        </g>
    </g>
</svg>