<?xml version="1.0" encoding="UTF-8" standalone="no"?>
<svg width="16px" height="23px" viewBox="0 0 16 23" version="1.1" xmlns="http://www.w3.org/2000/svg" xmlns:xlink="http://www.w3.org/1999/xlink">
    <!-- Generator: Sketch 47.1 (45422) - http://www.bohemiancoding.com/sketch -->
    <title>Fill 177</title>
    <desc>Created with Sketch.</desc>
    <defs></defs>
    <g id="Symbols" stroke="none" stroke-width="1" fill="none" fill-rule="evenodd">
        <g id="cohort" transform="translate(-338.000000, -61.000000)" fill="#FFFFFE">
            <g id="Group-5">
                <path d="M352.375,79.328125 C352.375,81.1142188 350.795187,82.5625 348.846656,82.5625 L342.965844,82.5625 C341.017313,82.5625 339.4375,81.1142188 339.4375,79.328125 L339.4375,77.171875 C339.4375,75.6438125 340.596844,74.371625 342.150781,74.0330937 C343.210938,74.87475 344.504687,75.375 345.90625,75.375 C347.307813,75.375 348.601562,74.87475 349.661719,74.0330937 C351.215656,74.371625 352.375,75.6438125 352.375,77.171875 L352.375,79.328125 L352.375,79.328125 Z M340.875,68.1875 C340.875,65.0120625 343.127563,62.4375 345.90625,62.4375 C348.684937,62.4375 350.9375,65.0120625 350.9375,68.1875 C350.9375,71.3629375 348.684937,73.9375 345.90625,73.9375 C343.127563,73.9375 340.875,71.3629375 340.875,68.1875 L340.875,68.1875 Z M350.902281,72.7537187 C351.821563,71.5117188 352.375,69.921125 352.375,68.1875 C352.375,64.2185625 349.479156,61 345.90625,61 C342.333344,61 339.4375,64.2185625 339.4375,68.1875 C339.4375,69.921125 339.990937,71.5117188 340.910219,72.7537187 C339.221156,73.3373437 338,74.9243437 338,76.8125 L338,79.6875 C338,82.0687187 339.931281,84 342.3125,84 L349.5,84 C351.881219,84 353.8125,82.0687187 353.8125,79.6875 L353.8125,76.8125 C353.8125,74.9243437 352.591344,73.3373437 350.902281,72.7537187 L350.902281,72.7537187 Z" id="Fill-177"></path>
            </g>
        </g>
    </g>
</svg>